<svg width="128" height="128" viewBox="0 0 128 128" fill="none" xmlns="http://www.w3.org/2000/svg">
<path d="M82.8793 60.2134L52.6926 30.08C52.1968 29.5801 51.6069 29.1834 50.957 28.9126C50.3071 28.6418 49.61 28.5024 48.9059 28.5024C48.2019 28.5024 47.5048 28.6418 46.8548 28.9126C46.2049 29.1834 45.6151 29.5801 45.1193 30.08C44.1259 31.0793 43.5684 32.431 43.5684 33.84C43.5684 35.249 44.1259 36.6008 45.1193 37.6L71.5193 64.2667L45.1193 90.6667C44.1259 91.666 43.5684 93.0177 43.5684 94.4267C43.5684 95.8357 44.1259 97.1874 45.1193 98.1867C45.6132 98.6906 46.2022 99.0915 46.8522 99.3662C47.5022 99.6408 48.2003 99.7838 48.9059 99.7867C49.6116 99.7838 50.3096 99.6408 50.9596 99.3662C51.6096 99.0915 52.1986 98.6906 52.6926 98.1867L82.8793 68.0534C83.4206 67.5539 83.8527 66.9478 84.1482 66.2731C84.4437 65.5985 84.5962 64.8699 84.5962 64.1334C84.5962 63.3968 84.4437 62.6683 84.1482 61.9936C83.8527 61.3189 83.4206 60.7128 82.8793 60.2134Z" fill="white"/>
</svg>
