<svg width="128" height="128" viewBox="0 0 128 128" fill="none" xmlns="http://www.w3.org/2000/svg">
<path d="M45.1198 67.7866L75.3064 97.92C75.8022 98.4199 76.3921 98.8166 77.042 99.0874C77.6919 99.3582 78.389 99.4976 79.0931 99.4976C79.7972 99.4976 80.4943 99.3582 81.1442 99.0874C81.7941 98.8166 82.384 98.4199 82.8798 97.92C83.8731 96.9207 84.4307 95.569 84.4307 94.16C84.4307 92.751 83.8731 91.3992 82.8798 90.4L56.4798 63.7333L82.8798 37.3333C83.8731 36.334 84.4307 34.9823 84.4307 33.5733C84.4307 32.1643 83.8731 30.8126 82.8798 29.8133C82.3858 29.3094 81.7968 28.9085 81.1468 28.6338C80.4968 28.3592 79.7987 28.2162 79.0931 28.2133C78.3875 28.2162 77.6894 28.3592 77.0394 28.6338C76.3894 28.9085 75.8004 29.3094 75.3064 29.8133L45.1198 59.9466C44.5784 60.4461 44.1464 61.0522 43.8509 61.7269C43.5554 62.4015 43.4028 63.1301 43.4028 63.8666C43.4028 64.6032 43.5554 65.3317 43.8509 66.0064C44.1464 66.6811 44.5784 67.2872 45.1198 67.7866Z" fill="white"/>
</svg>
