<svg width="34" height="34" viewBox="0 0 34 34" fill="none" xmlns="http://www.w3.org/2000/svg">
<path d="M17.0007 2.83331C9.17357 2.83331 2.83398 9.1729 2.83398 17C2.83398 24.8271 9.17357 31.1666 17.0007 31.1666C24.8277 31.1666 31.1673 24.8271 31.1673 17C31.1673 9.1729 24.8277 2.83331 17.0007 2.83331ZM17.0007 7.08331C19.3452 7.08331 21.2507 8.98873 21.2507 11.3333C21.2507 13.685 19.3452 15.5833 17.0007 15.5833C14.6561 15.5833 12.7507 13.685 12.7507 11.3333C12.7507 8.98873 14.6561 7.08331 17.0007 7.08331ZM17.0007 27.2C13.4519 27.2 10.3352 25.3866 8.50065 22.6383C8.53607 19.8262 14.1744 18.275 17.0007 18.275C19.8269 18.275 25.4582 19.8262 25.5007 22.6383C23.6661 25.3866 20.5494 27.2 17.0007 27.2Z" fill="white" fill-opacity="0.5"/>
</svg>
