<svg width="24" height="24" viewBox="0 0 24 24" fill="none" xmlns="http://www.w3.org/2000/svg">
<path d="M15.5407 11.29L9.88071 5.63998C9.78775 5.54625 9.67715 5.47185 9.55529 5.42108C9.43343 5.37032 9.30273 5.34418 9.17071 5.34418C9.0387 5.34418 8.908 5.37032 8.78614 5.42108C8.66428 5.47185 8.55368 5.54625 8.46071 5.63998C8.27446 5.82734 8.16992 6.08079 8.16992 6.34498C8.16992 6.60916 8.27446 6.86261 8.46071 7.04998L13.4107 12.05L8.46071 17C8.27446 17.1873 8.16992 17.4408 8.16992 17.705C8.16992 17.9692 8.27446 18.2226 8.46071 18.41C8.55333 18.5045 8.66377 18.5796 8.78565 18.6311C8.90752 18.6826 9.03841 18.7094 9.17071 18.71C9.30302 18.7094 9.4339 18.6826 9.55578 18.6311C9.67765 18.5796 9.7881 18.5045 9.88071 18.41L15.5407 12.76C15.6422 12.6663 15.7232 12.5527 15.7786 12.4262C15.834 12.2997 15.8626 12.1631 15.8626 12.025C15.8626 11.8869 15.834 11.7503 15.7786 11.6238C15.7232 11.4973 15.6422 11.3836 15.5407 11.29Z" fill="white"/>
</svg>
