<svg width="26" height="26" viewBox="0 0 26 26" fill="none" xmlns="http://www.w3.org/2000/svg">
    <path d="M15.825 14.975C16.775 13.825 17.375 12.35 17.375 10.725C17.375 7.07498 14.4 4.09998 10.75 4.09998C7.1 4.09998 4.125 7.07498 4.125 10.725C4.125 14.375 7.1 17.35 10.75 17.35C12.35 17.35 13.85 16.775 15 15.8L20.15 20.95C20.275 21.075 20.425 21.125 20.575 21.125C20.725 21.125 20.875 21.075 21 20.95C21.225 20.725 21.225 20.325 21 20.1L15.825 14.975ZM10.725 16.15C7.725 16.15 5.3 13.725 5.3 10.725C5.3 7.72498 7.725 5.29998 10.725 5.29998C13.725 5.29998 16.15 7.72498 16.15 10.725C16.15 13.725 13.725 16.15 10.725 16.15Z" fill="white" fill-opacity="0.5"/>
</svg>
